<svg xmlns="http://www.w3.org/2000/svg" width="58" height="58" viewBox="0 0 58 58">
  <g id="ios_icon" transform="translate(-9414 -8095)">
    <circle id="Ellipse_1056" data-name="Ellipse 1056" cx="29" cy="29" r="29" transform="translate(9414 8095)" fill="#1e212b"/>
    <g id="apple_3_" data-name="apple (3)" transform="translate(9430.098 8108.036)">
      <path id="Path_4996" data-name="Path 4996" d="M54.51,141.979c-4.645-.027-8.488-9.509-8.488-14.339,0-7.889,5.918-9.616,8.2-9.616a9.434,9.434,0,0,1,3.093.761,6.914,6.914,0,0,0,1.766.506,5.5,5.5,0,0,0,1.267-.411,10.156,10.156,0,0,1,3.819-.923h.009a7.828,7.828,0,0,1,6.551,3.308l.478.718-.688.519a5.786,5.786,0,0,0-2.775,4.771,5.385,5.385,0,0,0,3,4.978c.43.259.876.526.876,1.11,0,.381-3.043,8.569-7.463,8.569a6,6,0,0,1-2.52-.612,5.11,5.11,0,0,0-2.243-.54,5.77,5.77,0,0,0-1.776.48,8.7,8.7,0,0,1-3.081.719Z" transform="translate(-46.022 -110.767)" fill="#fff"/>
      <path id="Path_4997" data-name="Path 4997" d="M261.018,0c.115,4.15-2.853,7.029-5.817,6.848C254.712,3.537,258.165,0,261.018,0Z" transform="translate(-242.405)" fill="#fff"/>
    </g>
  </g>
</svg>
