<svg xmlns="http://www.w3.org/2000/svg" width="99.688" height="27.486" viewBox="0 0 99.688 27.486">
  <g id="parabel_logo" transform="translate(-45.999 -29.499)">
    <g id="Group_2433" data-name="Group 2433" transform="translate(-98 -1117.5)">
      <g id="happiness" transform="translate(167.426 1147) rotate(90)">
        <path id="Path_5064" data-name="Path 5064" d="M3.43,3.433a11.713,11.713,0,0,1,17.7,15.241c.93.713,2.168,1.725,6.355,4.753H11.712A11.712,11.712,0,0,1,3.43,3.433Z" fill="#fff"/>
      </g>
    </g>
    <path id="Parabel" d="M10.4-8.676a3.913,3.913,0,0,1-.477,1.89A3.5,3.5,0,0,1,8.433-5.364a5.434,5.434,0,0,1-2.565.54H3.762V0H1.242V-12.564H5.868a5.59,5.59,0,0,1,2.484.5,3.511,3.511,0,0,1,1.539,1.386A3.9,3.9,0,0,1,10.4-8.676ZM5.76-6.858a2.184,2.184,0,0,0,1.548-.477,1.758,1.758,0,0,0,.5-1.341q0-1.836-2.052-1.836h-2v3.654Zm5.6,1.836a5.772,5.772,0,0,1,.6-2.682A4.42,4.42,0,0,1,13.6-9.5a4.361,4.361,0,0,1,2.313-.63,4.063,4.063,0,0,1,1.953.45A3.963,3.963,0,0,1,19.206-8.55V-9.972h2.538V0H19.206V-1.458A3.748,3.748,0,0,1,17.865-.3a4.1,4.1,0,0,1-1.971.459,4.238,4.238,0,0,1-2.3-.648,4.535,4.535,0,0,1-1.638-1.827A5.867,5.867,0,0,1,11.358-5.022Zm7.848.036a3.232,3.232,0,0,0-.36-1.575,2.538,2.538,0,0,0-.972-1.008A2.6,2.6,0,0,0,16.56-7.92a2.552,2.552,0,0,0-1.3.342,2.575,2.575,0,0,0-.963,1,3.129,3.129,0,0,0-.369,1.557A3.233,3.233,0,0,0,14.3-3.447a2.657,2.657,0,0,0,.972,1.035,2.469,2.469,0,0,0,1.287.36A2.6,2.6,0,0,0,17.874-2.4a2.538,2.538,0,0,0,.972-1.008A3.232,3.232,0,0,0,19.206-4.986ZM26.55-8.424a3.543,3.543,0,0,1,1.269-1.242,3.529,3.529,0,0,1,1.791-.45V-7.47h-.666a2.553,2.553,0,0,0-1.791.558,2.572,2.572,0,0,0-.6,1.944V0H24.03V-9.972h2.52Zm3.924,3.4a5.772,5.772,0,0,1,.6-2.682,4.42,4.42,0,0,1,1.638-1.8,4.361,4.361,0,0,1,2.313-.63,4.063,4.063,0,0,1,1.953.45A3.963,3.963,0,0,1,38.322-8.55V-9.972H40.86V0H38.322V-1.458A3.748,3.748,0,0,1,36.981-.3,4.1,4.1,0,0,1,35.01.162a4.238,4.238,0,0,1-2.295-.648,4.535,4.535,0,0,1-1.638-1.827A5.867,5.867,0,0,1,30.474-5.022Zm7.848.036a3.232,3.232,0,0,0-.36-1.575,2.538,2.538,0,0,0-.972-1.008,2.6,2.6,0,0,0-1.314-.351,2.552,2.552,0,0,0-1.3.342,2.575,2.575,0,0,0-.963,1,3.129,3.129,0,0,0-.369,1.557,3.233,3.233,0,0,0,.369,1.575,2.657,2.657,0,0,0,.972,1.035,2.469,2.469,0,0,0,1.287.36A2.6,2.6,0,0,0,36.99-2.4a2.538,2.538,0,0,0,.972-1.008A3.232,3.232,0,0,0,38.322-4.986Zm7.344-3.528a3.6,3.6,0,0,1,1.341-1.17,4.13,4.13,0,0,1,1.953-.45,4.361,4.361,0,0,1,2.313.63,4.433,4.433,0,0,1,1.638,1.791,5.757,5.757,0,0,1,.6,2.691,5.867,5.867,0,0,1-.6,2.709A4.535,4.535,0,0,1,51.273-.486,4.269,4.269,0,0,1,48.96.162a4.131,4.131,0,0,1-1.953-.441,3.794,3.794,0,0,1-1.341-1.143V0h-2.52V-13.32h2.52ZM50.94-5.022a3.129,3.129,0,0,0-.369-1.557,2.555,2.555,0,0,0-.972-1,2.6,2.6,0,0,0-1.305-.342,2.517,2.517,0,0,0-1.287.351,2.605,2.605,0,0,0-.972,1.017,3.181,3.181,0,0,0-.369,1.566,3.181,3.181,0,0,0,.369,1.566A2.605,2.605,0,0,0,47.007-2.4a2.517,2.517,0,0,0,1.287.351,2.5,2.5,0,0,0,1.305-.36,2.672,2.672,0,0,0,.972-1.026A3.22,3.22,0,0,0,50.94-5.022Zm13.5-.18a5.948,5.948,0,0,1-.072.972h-7.29a2.479,2.479,0,0,0,.756,1.692,2.331,2.331,0,0,0,1.638.612,2.058,2.058,0,0,0,2-1.206h2.718A4.542,4.542,0,0,1,62.532-.765a4.835,4.835,0,0,1-3.006.927,5.2,5.2,0,0,1-2.583-.639,4.5,4.5,0,0,1-1.782-1.809,5.543,5.543,0,0,1-.639-2.7,5.646,5.646,0,0,1,.63-2.718,4.4,4.4,0,0,1,1.764-1.8,5.284,5.284,0,0,1,2.61-.63,5.243,5.243,0,0,1,2.547.612,4.307,4.307,0,0,1,1.746,1.737A5.256,5.256,0,0,1,64.44-5.2Zm-2.61-.72a2,2,0,0,0-.7-1.557,2.487,2.487,0,0,0-1.674-.585,2.287,2.287,0,0,0-1.575.567A2.493,2.493,0,0,0,57.1-5.922Zm6.786-7.4V0H66.1V-13.32Z" transform="translate(77.071 50)" fill="#fff"/>
  </g>
</svg>
