<svg xmlns="http://www.w3.org/2000/svg" width="23.961" height="25.989" viewBox="0 0 23.961 25.989">
  <g id="reverse" transform="translate(0.466 0.4)" opacity="0.63">
    <g id="Group_2413" data-name="Group 2413" transform="translate(0 0)">
      <path id="Path_5063" data-name="Path 5063" d="M25.672,4.995A10.042,10.042,0,0,1,38.726,4.65l-2.988.113a.695.695,0,0,0,.026,1.389h.026l4.588-.17a.693.693,0,0,0,.669-.694V5.206h0L40.876.669a.695.695,0,1,0-1.389.051L39.6,3.565a11.421,11.421,0,0,0-14.855.4,11.425,11.425,0,0,0-3.436,11.167.691.691,0,0,0,.674.53.6.6,0,0,0,.165-.021.7.7,0,0,0,.509-.838A10.036,10.036,0,0,1,25.672,4.995Z" transform="translate(-20.982 0)" fill="#fff" stroke="#fff" stroke-width="0.8"/>
      <path id="Path_5064" data-name="Path 5064" d="M97.107,185.744a.694.694,0,1,0-1.348.329A10.034,10.034,0,0,1,79.6,196.159l3.024-.273A.695.695,0,0,0,82.5,194.5l-4.573.412a.694.694,0,0,0-.628.756l.411,4.573a.693.693,0,0,0,.689.633.25.25,0,0,0,.062-.005.694.694,0,0,0,.628-.756l-.247-2.783a11.344,11.344,0,0,0,6.6,2.515c.2.01.391.015.581.015a11.422,11.422,0,0,0,11.084-14.119Z" transform="translate(-74.399 -175.687)" fill="#fff" stroke="#fff" stroke-width="0.8"/>
    </g>
  </g>
</svg>
